<svg width="199" height="40" viewBox="0 0 199 40" fill="none" xmlns="http://www.w3.org/2000/svg">
<path fill-rule="evenodd" clip-rule="evenodd" d="M15.4008 0.688608C17.0092 -0.229536 18.9908 -0.229536 20.5992 0.688608L33.4008 7.99619C35.0092 8.91433 36 10.6111 36 12.4474V27.0626C36 28.8989 35.0092 30.5957 33.4008 31.5138L20.5992 38.8214C18.9908 39.7395 17.0092 39.7395 15.4008 38.8214L2.59924 31.5138C0.990826 30.5957 0 28.8989 0 27.0626V12.4474C0 10.6111 0.990826 8.91433 2.59924 7.99619L15.4008 0.688608ZM19.8195 2.02398C18.6936 1.38128 17.3064 1.38128 16.1805 2.02398L3.37901 9.33156C2.25312 9.97426 1.55955 11.162 1.55955 12.4474V27.0626C1.55955 28.348 2.25312 29.5357 3.37902 30.1784L16.1805 37.486C17.3064 38.1287 18.6936 38.1287 19.8195 37.486L32.621 30.1784C33.7469 29.5357 34.4405 28.348 34.4405 27.0626V12.4474C34.4405 11.162 33.7469 9.97426 32.621 9.33156L19.8195 2.02398Z" fill="white"/>
<path d="M28.8961 16.462C29.4501 15.5161 29.1214 14.3065 28.1618 13.7604C27.2023 13.2143 25.9753 13.5384 25.4213 14.4843L19.4685 24.6484C18.9145 25.5943 19.2433 26.8038 20.2028 27.3499C21.1624 27.8961 22.3894 27.572 22.9433 26.6261L28.8961 16.462Z" fill="white"/>
<path d="M13.5511 21.7214L16.3057 17.0181C16.8597 16.0722 18.0866 15.7481 19.0462 16.2942C20.0057 16.8403 20.3345 18.0499 19.7805 18.9958L15.3092 26.6302C14.7552 27.5761 13.5283 27.9002 12.5687 27.3541C12.2565 27.1764 12.011 26.9284 11.8411 26.6422L11.8102 26.6597L5.8404 16.4665C5.28641 15.5206 5.61517 14.3111 6.57471 13.765C7.53425 13.2188 8.76121 13.5429 9.3152 14.4888L13.5511 21.7214Z" fill="white"/>
<path d="M50.8906 28.2549L46.4531 12.2549H48.9922L52.1094 24.6455H52.2578L55.5 12.2549H58.0156L61.2578 24.6533H61.4063L64.5156 12.2549H67.0625L62.6172 28.2549H60.1875L56.8203 16.2705H56.6953L53.3281 28.2549H50.8906ZM71.4121 21.1299V28.2549H69.0762V12.2549H71.3809V18.208H71.5293C71.8105 17.5622 72.2402 17.0492 72.8184 16.6689C73.3965 16.2887 74.1517 16.0986 75.084 16.0986C75.9069 16.0986 76.6257 16.2679 77.2402 16.6064C77.86 16.945 78.3392 17.4502 78.6777 18.1221C79.0215 18.7887 79.1934 19.6221 79.1934 20.6221V28.2549H76.8574V20.9033C76.8574 20.0231 76.6309 19.3408 76.1777 18.8564C75.7246 18.3669 75.0944 18.1221 74.2871 18.1221C73.735 18.1221 73.2402 18.2393 72.8027 18.4736C72.3704 18.708 72.0293 19.0518 71.7793 19.5049C71.5345 19.9528 71.4121 20.4945 71.4121 21.1299ZM82.3105 28.2549V16.2549H84.6465V28.2549H82.3105ZM83.4902 14.4033C83.084 14.4033 82.735 14.2679 82.4434 13.9971C82.1569 13.721 82.0137 13.3929 82.0137 13.0127C82.0137 12.6273 82.1569 12.2992 82.4434 12.0283C82.735 11.7523 83.084 11.6143 83.4902 11.6143C83.8965 11.6143 84.2428 11.7523 84.5293 12.0283C84.821 12.2992 84.9668 12.6273 84.9668 13.0127C84.9668 13.3929 84.821 13.721 84.5293 13.9971C84.2428 14.2679 83.8965 14.4033 83.4902 14.4033ZM93.3906 16.2549V18.1299H86.8359V16.2549H93.3906ZM88.5938 13.3799H90.9297V24.7314C90.9297 25.1846 90.9974 25.5257 91.1328 25.7549C91.2682 25.9788 91.4427 26.1325 91.6563 26.2158C91.875 26.2939 92.112 26.333 92.3672 26.333C92.5547 26.333 92.7188 26.32 92.8594 26.2939C93 26.2679 93.1094 26.2471 93.1875 26.2314L93.6094 28.1611C93.474 28.2132 93.2813 28.2653 93.0313 28.3174C92.7813 28.3747 92.4688 28.4059 92.0938 28.4111C91.4792 28.4215 90.9063 28.3122 90.375 28.083C89.8438 27.8538 89.4141 27.4997 89.0859 27.0205C88.7578 26.5413 88.5938 25.9398 88.5938 25.2158V13.3799ZM101.018 28.4971C99.8353 28.4971 98.8171 28.2445 97.9629 27.7393C97.1139 27.2288 96.4577 26.5127 95.9941 25.5908C95.5358 24.6637 95.3066 23.5778 95.3066 22.333C95.3066 21.1038 95.5358 20.0205 95.9941 19.083C96.4577 18.1455 97.1035 17.4137 97.9316 16.8877C98.765 16.3617 99.7389 16.0986 100.854 16.0986C101.531 16.0986 102.187 16.2106 102.822 16.4346C103.458 16.6585 104.028 17.0101 104.533 17.4893C105.038 17.9684 105.437 18.5908 105.729 19.3564C106.02 20.1169 106.166 21.0413 106.166 22.1299V22.958H96.627V21.208H103.877C103.877 20.5934 103.752 20.0492 103.502 19.5752C103.252 19.096 102.9 18.7184 102.447 18.4424C101.999 18.1663 101.473 18.0283 100.869 18.0283C100.213 18.0283 99.64 18.1898 99.1504 18.5127C98.666 18.8304 98.291 19.2471 98.0254 19.7627C97.765 20.2731 97.6348 20.8278 97.6348 21.4268V22.7939C97.6348 23.596 97.7754 24.2783 98.0566 24.8408C98.3431 25.4033 98.7415 25.833 99.252 26.1299C99.7624 26.4215 100.359 26.5674 101.041 26.5674C101.484 26.5674 101.887 26.5049 102.252 26.3799C102.617 26.2497 102.932 26.057 103.197 25.8018C103.463 25.5465 103.666 25.2314 103.807 24.8564L106.018 25.2549C105.84 25.9059 105.523 26.4762 105.064 26.9658C104.611 27.4502 104.041 27.8278 103.354 28.0986C102.671 28.3643 101.893 28.4971 101.018 28.4971ZM117.75 19.1846L115.633 19.5596C115.544 19.2887 115.404 19.0309 115.211 18.7861C115.023 18.5413 114.768 18.3408 114.445 18.1846C114.122 18.0283 113.719 17.9502 113.234 17.9502C112.573 17.9502 112.021 18.0986 111.578 18.3955C111.135 18.6872 110.914 19.0648 110.914 19.5283C110.914 19.9294 111.063 20.2523 111.359 20.4971C111.656 20.7419 112.135 20.9424 112.797 21.0986L114.703 21.5361C115.807 21.7913 116.63 22.1846 117.172 22.7158C117.714 23.2471 117.984 23.9372 117.984 24.7861C117.984 25.5049 117.776 26.1455 117.359 26.708C116.948 27.2653 116.372 27.7028 115.633 28.0205C114.898 28.3382 114.047 28.4971 113.078 28.4971C111.734 28.4971 110.638 28.2106 109.789 27.6377C108.94 27.0596 108.419 26.2393 108.227 25.1768L110.484 24.833C110.625 25.4215 110.914 25.8669 111.352 26.1689C111.789 26.4658 112.359 26.6143 113.063 26.6143C113.828 26.6143 114.44 26.4554 114.898 26.1377C115.357 25.8148 115.586 25.4215 115.586 24.958C115.586 24.583 115.445 24.2679 115.164 24.0127C114.888 23.7575 114.464 23.5648 113.891 23.4346L111.859 22.9893C110.74 22.734 109.911 22.3278 109.375 21.7705C108.844 21.2132 108.578 20.5075 108.578 19.6533C108.578 18.945 108.776 18.3252 109.172 17.7939C109.568 17.2627 110.115 16.8486 110.813 16.5518C111.51 16.2497 112.31 16.0986 113.211 16.0986C114.508 16.0986 115.529 16.3799 116.273 16.9424C117.018 17.4997 117.51 18.2471 117.75 19.1846ZM120.553 32.7549V16.2549H122.834V18.2002H123.029C123.165 17.9502 123.36 17.6611 123.615 17.333C123.87 17.0049 124.225 16.7184 124.678 16.4736C125.131 16.2236 125.73 16.0986 126.475 16.0986C127.443 16.0986 128.308 16.3434 129.068 16.833C129.829 17.3226 130.425 18.0283 130.857 18.9502C131.295 19.8721 131.514 20.9814 131.514 22.2783C131.514 23.5752 131.298 24.6872 130.865 25.6143C130.433 26.5361 129.839 27.2471 129.084 27.7471C128.329 28.2419 127.467 28.4893 126.498 28.4893C125.769 28.4893 125.173 28.3669 124.709 28.1221C124.251 27.8773 123.891 27.5908 123.631 27.2627C123.37 26.9346 123.17 26.6429 123.029 26.3877H122.889V32.7549H120.553ZM122.842 22.2549C122.842 23.0986 122.964 23.8382 123.209 24.4736C123.454 25.109 123.808 25.6064 124.271 25.9658C124.735 26.32 125.303 26.4971 125.975 26.4971C126.673 26.4971 127.256 26.3122 127.725 25.9424C128.193 25.5674 128.548 25.0596 128.787 24.4189C129.032 23.7783 129.154 23.057 129.154 22.2549C129.154 21.4632 129.035 20.7523 128.795 20.1221C128.561 19.4919 128.206 18.9945 127.732 18.6299C127.264 18.2653 126.678 18.083 125.975 18.083C125.298 18.083 124.725 18.2575 124.256 18.6064C123.792 18.9554 123.441 19.4424 123.201 20.0674C122.962 20.6924 122.842 21.4215 122.842 22.2549ZM137.623 28.5205C136.863 28.5205 136.175 28.3799 135.561 28.0986C134.946 27.8122 134.459 27.3981 134.1 26.8564C133.745 26.3148 133.568 25.6507 133.568 24.8643C133.568 24.1872 133.699 23.6299 133.959 23.1924C134.219 22.7549 134.571 22.4085 135.014 22.1533C135.456 21.8981 135.951 21.7054 136.498 21.5752C137.045 21.445 137.602 21.346 138.17 21.2783C138.889 21.195 139.472 21.1273 139.92 21.0752C140.368 21.0179 140.693 20.9268 140.896 20.8018C141.1 20.6768 141.201 20.4736 141.201 20.1924V20.1377C141.201 19.4554 141.008 18.9268 140.623 18.5518C140.243 18.1768 139.675 17.9893 138.92 17.9893C138.133 17.9893 137.514 18.1637 137.061 18.5127C136.613 18.8564 136.303 19.2393 136.131 19.6611L133.936 19.1611C134.196 18.432 134.576 17.8434 135.076 17.3955C135.581 16.9424 136.162 16.6143 136.818 16.4111C137.475 16.2028 138.165 16.0986 138.889 16.0986C139.368 16.0986 139.876 16.1559 140.412 16.2705C140.954 16.3799 141.459 16.583 141.928 16.8799C142.402 17.1768 142.79 17.6012 143.092 18.1533C143.394 18.7002 143.545 19.4111 143.545 20.2861V28.2549H141.264V26.6143H141.17C141.019 26.9163 140.792 27.2132 140.49 27.5049C140.188 27.7965 139.8 28.0387 139.326 28.2314C138.852 28.4242 138.285 28.5205 137.623 28.5205ZM138.131 26.6455C138.777 26.6455 139.329 26.5179 139.787 26.2627C140.251 26.0075 140.602 25.6742 140.842 25.2627C141.087 24.846 141.209 24.4007 141.209 23.9268V22.3799C141.126 22.4632 140.964 22.5413 140.725 22.6143C140.49 22.682 140.222 22.7419 139.92 22.7939C139.618 22.8408 139.324 22.8851 139.037 22.9268C138.751 22.9632 138.511 22.9945 138.318 23.0205C137.865 23.0778 137.451 23.1742 137.076 23.3096C136.706 23.445 136.41 23.6403 136.186 23.8955C135.967 24.1455 135.857 24.4788 135.857 24.8955C135.857 25.4736 136.071 25.9111 136.498 26.208C136.925 26.4997 137.469 26.6455 138.131 26.6455ZM151.711 28.4971C150.549 28.4971 149.549 28.234 148.711 27.708C147.878 27.1768 147.237 26.445 146.789 25.5127C146.341 24.5804 146.117 23.5127 146.117 22.3096C146.117 21.0908 146.346 20.0153 146.805 19.083C147.263 18.1455 147.909 17.4137 148.742 16.8877C149.576 16.3617 150.557 16.0986 151.688 16.0986C152.599 16.0986 153.411 16.2679 154.125 16.6064C154.839 16.9398 155.414 17.4085 155.852 18.0127C156.294 18.6169 156.557 19.3226 156.641 20.1299H154.367C154.242 19.5674 153.956 19.083 153.508 18.6768C153.065 18.2705 152.471 18.0674 151.727 18.0674C151.076 18.0674 150.505 18.2393 150.016 18.583C149.531 18.9215 149.154 19.4059 148.883 20.0361C148.612 20.6611 148.477 21.4007 148.477 22.2549C148.477 23.1299 148.609 23.8851 148.875 24.5205C149.141 25.1559 149.516 25.6481 150 25.9971C150.49 26.346 151.065 26.5205 151.727 26.5205C152.169 26.5205 152.57 26.4398 152.93 26.2783C153.294 26.1117 153.599 25.8747 153.844 25.5674C154.094 25.2601 154.268 24.8903 154.367 24.458H156.641C156.557 25.234 156.305 25.9268 155.883 26.5361C155.461 27.1455 154.896 27.6247 154.188 27.9736C153.484 28.3226 152.659 28.4971 151.711 28.4971ZM164.311 28.4971C163.128 28.4971 162.11 28.2445 161.256 27.7393C160.407 27.2288 159.751 26.5127 159.287 25.5908C158.829 24.6637 158.6 23.5778 158.6 22.333C158.6 21.1038 158.829 20.0205 159.287 19.083C159.751 18.1455 160.396 17.4137 161.225 16.8877C162.058 16.3617 163.032 16.0986 164.146 16.0986C164.824 16.0986 165.48 16.2106 166.115 16.4346C166.751 16.6585 167.321 17.0101 167.826 17.4893C168.331 17.9684 168.73 18.5908 169.021 19.3564C169.313 20.1169 169.459 21.0413 169.459 22.1299V22.958H159.92V21.208H167.17C167.17 20.5934 167.045 20.0492 166.795 19.5752C166.545 19.096 166.193 18.7184 165.74 18.4424C165.292 18.1663 164.766 18.0283 164.162 18.0283C163.506 18.0283 162.933 18.1898 162.443 18.5127C161.959 18.8304 161.584 19.2471 161.318 19.7627C161.058 20.2731 160.928 20.8278 160.928 21.4268V22.7939C160.928 23.596 161.068 24.2783 161.35 24.8408C161.636 25.4033 162.035 25.833 162.545 26.1299C163.055 26.4215 163.652 26.5674 164.334 26.5674C164.777 26.5674 165.18 26.5049 165.545 26.3799C165.91 26.2497 166.225 26.057 166.49 25.8018C166.756 25.5465 166.959 25.2314 167.1 24.8564L169.311 25.2549C169.133 25.9059 168.816 26.4762 168.357 26.9658C167.904 27.4502 167.334 27.8278 166.646 28.0986C165.964 28.3643 165.186 28.4971 164.311 28.4971ZM188.35 12.2549H190.771V22.7783C190.771 23.8981 190.508 24.8903 189.982 25.7549C189.456 26.6143 188.717 27.2913 187.764 27.7861C186.811 28.2757 185.693 28.5205 184.412 28.5205C183.136 28.5205 182.021 28.2757 181.068 27.7861C180.115 27.2913 179.376 26.6143 178.85 25.7549C178.324 24.8903 178.061 23.8981 178.061 22.7783V12.2549H180.475V22.583C180.475 23.307 180.633 23.9502 180.951 24.5127C181.274 25.0752 181.73 25.5179 182.318 25.8408C182.907 26.1585 183.605 26.3174 184.412 26.3174C185.225 26.3174 185.925 26.1585 186.514 25.8408C187.107 25.5179 187.561 25.0752 187.873 24.5127C188.191 23.9502 188.35 23.307 188.35 22.583V12.2549ZM196.695 12.2549V28.2549H194.281V12.2549H196.695Z" fill="white"/>
</svg>
